<svg version="1.1" xmlns="http://www.w3.org/2000/svg" xmlns:xlink="http://www.w3.org/1999/xlink" width="28.90367" height="27.49541" viewBox="0,0,28.90367,27.49541"><g transform="translate(-225.54816,-166.2523)"><g data-paper-data="{&quot;isPaintingLayer&quot;:true}" fill="#9966ff" fill-rule="nonzero" stroke="none" stroke-width="0.5" stroke-linecap="butt" stroke-linejoin="miter" stroke-miterlimit="10" stroke-dasharray="" stroke-dashoffset="0" style="mix-blend-mode: normal"><path d="M234.84698,180.85149c0,-3.49493 4.38869,-6.32812 9.80243,-6.32812c5.41374,0 9.80243,2.83319 9.80243,6.32812c0,3.49493 -4.38869,6.32812 -9.80243,6.32812c-5.41374,0 -9.80243,-2.83319 -9.80243,-6.32812z"/><path d="M225.54816,172.58042c0,-3.49493 4.38869,-6.32812 9.80243,-6.32812c5.41374,0 9.80243,2.83319 9.80243,6.32812c0,3.49493 -4.38869,6.32812 -9.80243,6.32812c-5.41374,0 -9.80243,-2.83319 -9.80243,-6.32812z"/><path d="M226.23763,187.41958c0,-3.49493 4.38869,-6.32812 9.80243,-6.32812c5.41374,0 9.80243,2.83319 9.80243,6.32812c0,3.49493 -4.38869,6.32812 -9.80243,6.32812c-5.41374,0 -9.80243,-2.83319 -9.80243,-6.32812z"/></g></g></svg>