<svg version="1.1" xmlns="http://www.w3.org/2000/svg" xmlns:xlink="http://www.w3.org/1999/xlink" width="45.82247" height="44.11602" viewBox="0,0,45.82247,44.11602"><g transform="translate(-243.66036,-158.01633)"><g data-paper-data="{&quot;isPaintingLayer&quot;:true}" fill="#000000" fill-rule="nonzero" stroke="none" stroke-width="0.5" stroke-linecap="butt" stroke-linejoin="miter" stroke-miterlimit="10" stroke-dasharray="" stroke-dashoffset="0" style="mix-blend-mode: normal"><path d="M287.91149,192.25312c-3.53553,3.53553 -7.07107,0 -7.07107,0l-0.36198,-0.38415c-0.57386,0.26638 -1.27091,0.43817 -2.11759,0.46247c0.1085,0.28544 0.21612,0.57042 0.32292,0.85483l0.40756,1.21186c0,0 1.58114,4.74342 -3.16228,6.32456c-4.74342,1.58114 -6.32456,-3.16228 -6.32456,-3.16228l-0.28402,-0.8629c-0.81281,-2.17059 -1.67836,-4.36251 -2.62166,-6.53055c0.37083,1.41241 0.73115,2.8314 1.08859,4.25384l-1.8881,5.59586c0,0 -3,4 -7,1c-3.05863,-2.29397 -2.02435,-5.17265 -1.36812,-6.40054c-2.51835,-10.07833 -5.33091,-20.27765 -12.48853,-28.14248c0,0 -3.34482,-3.71647 0.37165,-7.0613c2.3404,-2.10636 4.53341,-1.41243 5.83654,-0.60979c1.67207,-0.95271 3.61664,-0.5881 3.61664,-0.5881c4.1586,0.80073 8.20055,1.48594 11.90448,3.66908c4.97043,2.92962 8.37763,7.52479 11.0833,12.53986c3.6878,2.96276 6.68316,6.34725 9.55196,10.35063l0.50425,0.40804c0,0 3.53553,3.53553 0,7.07107z"/></g></g></svg>