<svg version="1.1" xmlns="http://www.w3.org/2000/svg" xmlns:xlink="http://www.w3.org/1999/xlink" width="38.83333" height="38.83333" viewBox="0,0,38.83333,38.83333"><defs><radialGradient cx="241.10733" cy="179.45182" r="8.75" gradientUnits="userSpaceOnUse" id="color-1"><stop offset="0" stop-color="#7000ff"/><stop offset="1" stop-color="#ce66ff"/></radialGradient><radialGradient cx="239.61428" cy="179.15668" r="19.41667" gradientUnits="userSpaceOnUse" id="color-2"><stop offset="0" stop-color="#e466ff"/><stop offset="1" stop-color="#5700ff"/></radialGradient></defs><g transform="translate(-220.58333,-160.58333)"><g data-paper-data="{&quot;isPaintingLayer&quot;:true}" fill-rule="nonzero" stroke="none" stroke-linecap="butt" stroke-linejoin="miter" stroke-miterlimit="10" stroke-dasharray="" stroke-dashoffset="0" style="mix-blend-mode: normal"><path d="M232.87122,178.93793c0,-4.83249 3.91751,-8.75 8.75,-8.75c4.83249,0 8.75,3.91751 8.75,8.75c0,4.83249 -3.91751,8.75 -8.75,8.75c-4.83249,0 -8.75,-3.91751 -8.75,-8.75z" fill="url(#color-1)" stroke-width="0.5"/><path d="M220.58333,180c0,-10.72353 8.69314,-19.41667 19.41667,-19.41667c10.72353,0 19.41667,8.69314 19.41667,19.41667c0,10.72353 -8.69314,19.41667 -19.41667,19.41667c-10.72353,0 -19.41667,-8.69314 -19.41667,-19.41667z" fill="url(#color-2)" stroke-width="0"/></g></g></svg>