<svg version="1.1" xmlns="http://www.w3.org/2000/svg" xmlns:xlink="http://www.w3.org/1999/xlink" width="71.20989" height="64.22611" viewBox="0,0,71.20989,64.22611"><g transform="translate(-204.39505,-147.88693)"><g data-paper-data="{&quot;isPaintingLayer&quot;:true}" fill="#44e0ff" fill-rule="nonzero" stroke="none" stroke-width="0.5" stroke-linecap="butt" stroke-linejoin="miter" stroke-miterlimit="10" stroke-dasharray="" stroke-dashoffset="0" style="mix-blend-mode: normal"><path d="M216.31713,169.9624l0.01044,-0.73956c0.50645,-4.05163 0.86881,-8.23692 5.69995,-9.48364c2.80428,-0.72367 3.88691,0.14898 6.22632,1.33794c1.38444,0.70362 1.60833,1.4147 3.07023,0.79962c3.36331,-1.41507 5.20943,-5.96076 7.41032,-8.5555c3.1814,-3.7507 8.76979,-6.82771 13.65988,-4.77903c1.267,0.5308 2.61905,1.0063 3.64896,1.91533c1.48391,1.30975 1.88771,3.50845 2.39795,5.274c0.53363,4.95502 2.13789,6.38923 6.57804,8.60328c1.89136,0.94312 7.62989,-0.86098 8.44507,1.42449c0.43205,1.21133 2.43889,5.24416 2.10292,6.48558c-0.42611,1.57447 -4.89622,3.29081 -5.28823,4.87412c-0.85495,3.45311 -0.93124,5.69814 -3.52778,8.39499c-1.0412,1.08142 -2.16025,2.08691 -3.18599,3.18301c-0.63415,0.67765 -2.18063,1.21005 -1.85278,2.07831c0.58952,1.56124 3.40931,3.24458 4.5219,4.57381c0.66077,0.68001 1.49257,1.22813 1.98231,2.04003c2.25479,3.73804 4.43617,12.20533 -1.83516,13.04809c-1.00133,0.13456 -3.689,-2.73411 -4.61498,-3.13826c-0.58741,-0.25638 -4.27957,0.51096 -4.7802,0.67687c-1.63886,0.54313 -0.63081,2.62876 -2.25226,3.22184c-2.48634,0.90944 -6.22115,1.14467 -8.81636,0.69008c-3.34982,-0.58677 -4.75163,-8.84028 -8.02984,-9.49441c-3.85024,-0.76827 -9.05932,6.91302 -12.89607,5.2021c-1.09866,-0.48992 -1.86009,-1.52589 -2.79014,-2.28884c-1.76998,-2.49149 -0.42613,-5.06116 -1.09024,-8.06062c-0.10413,-0.47029 0.18083,-6.79935 -0.6249,-7.59035c-0.53547,-0.52568 -6.04972,2.16485 -6.60919,2.06342c-3.11988,-0.56564 -5.44975,-0.05625 -7.75086,-2.79276c-1.85015,-2.20022 -1.81068,-3.2255 -1.67466,-5.9167c0.34478,-6.82177 6.30017,-10.23359 11.86534,-13.04726z"/></g></g></svg>