<svg version="1.1" xmlns="http://www.w3.org/2000/svg" xmlns:xlink="http://www.w3.org/1999/xlink" width="58.7475" height="56.79655" viewBox="0,0,58.7475,56.79655"><g transform="translate(-207.84505,-145.12318)"><g data-paper-data="{&quot;isPaintingLayer&quot;:true}" fill-rule="nonzero" stroke="none" stroke-width="0.5" stroke-linecap="butt" stroke-linejoin="miter" stroke-miterlimit="10" stroke-dasharray="" stroke-dashoffset="0" style="mix-blend-mode: normal"><path d="M221.39915,158.33131c-0.09207,-0.09505 -0.18215,-0.19256 -0.27013,-0.29257c-0.08779,-0.09979 0.16102,0.19449 0.27013,0.29257zM225.35637,155.05214c-0.26392,-2.38977 -0.42324,-5.15444 0.26017,-6.19174c0.16097,-0.24433 0.34288,-0.46908 0.54117,-0.67853l-0.0946,-0.08108l1.79336,-2.09225c0.45858,-0.54156 1.1435,-0.88536 1.90872,-0.88536c1.24305,0 2.27422,0.90723 2.46747,2.09567l0.58462,3.21544c0.17963,0.76265 0.32214,1.54257 0.41434,2.32863c1.29634,-2.91316 3.27396,-5.80958 6.93151,-5.48936c3.61461,0.31646 3.42824,4.99394 3.7938,7.15554c0.13534,0.80027 0.33089,1.58951 0.52377,2.37788c0.15818,0.64653 0.38537,1.27553 0.52905,1.92544c0.0063,0.02852 0.00902,0.06919 0.00949,0.11467c0.00744,-0.54243 -0.07762,-1.10837 0.14555,-1.5895l0.85109,-2.55326c0.31417,-1.02156 1.26534,-1.76412 2.38994,-1.76412c0.85068,0 1.60213,0.42489 2.0537,1.07402l1.48391,2.07747l-0.1733,0.12378l0.45963,0.39952c0.24073,1.53383 0.55253,3.05819 0.72219,4.6015c0.04884,0.44432 0.03325,1.49276 0.42233,1.27273c2.09925,-3.06961 9.41072,-10.50418 12.92199,-4.21697c0.82603,1.47908 -0.26414,3.44855 -0.96889,4.98911c-1.04445,2.28313 -4.19394,5.71805 -7.0167,7.42224c1.18105,-0.05654 2.47876,-0.11035 3.34938,0.6183c1.52628,1.27739 3.23042,3.17929 3.00902,5.15722c-0.18187,1.62476 -2.48604,2.16098 -3.91675,2.95216c-2.45989,1.36032 -6.1265,2.47314 -9.07947,3.32175c0.04014,0.00229 0.07638,0.00806 0.10751,0.01796c1.02392,0.32558 2.05859,0.80755 2.81449,1.57112c0.04554,0.04601 0.09064,0.09239 0.13532,0.13914l0.02097,-0.02696l2.68556,2.08877c0.59896,0.45673 0.98549,1.17783 0.98549,1.9892c0,1.38071 -1.11929,2.5 -2.5,2.5h-2.7059l0,-0.03942l-0.11329,0.03685c-2.40608,-0.22793 -4.76655,-0.852 -7.09001,-1.51738c-0.47544,-0.13615 -1.06782,-0.51511 -1.46681,-0.22289c-0.35257,0.25822 0.02789,0.8764 -0.01878,1.31092c-0.16251,1.51316 -0.15355,3.07249 -0.60799,4.52492c-0.7037,2.24906 -0.90924,5.11741 -2.83427,6.47672c-1.35269,0.95517 -3.35489,-0.34788 -4.8564,-1.04615c-1.01251,-0.47087 -3.07318,-3.04313 -4.08015,-4.7071c-4.17911,3.66034 -10.12087,8.9042 -15.75597,4.17254c-1.49417,-1.25462 -0.25112,-5.37218 0.90126,-7.51651c-3.18351,-0.0536 -7.1725,-0.23377 -9.0629,-2.9747c-2.01007,-2.91444 4.40694,-8.02088 6.02053,-9.39425c0.9503,-0.46369 1.86469,-1.00964 2.85089,-1.39108c0.26275,-0.10163 1.05594,0.14782 0.8443,-0.03813c-0.34226,-0.30073 -0.93484,-0.12288 -1.31439,-0.37491c-2.48782,-1.65202 -9.33212,-7.96402 -8.43835,-10.85132c1.15513,-3.73161 7.09774,-2.07635 9.46003,-1.53809c1.14949,0.26192 2.77893,1.52951 3.48773,0.58742c0.21013,-0.27929 -0.73669,-0.21475 -0.91223,-0.51698c-0.69369,-1.1944 -0.94158,-2.60893 -1.6064,-3.81963c-1.59447,-2.90367 -5.69553,-5.01476 0.53632,-8.7301c1.44851,-0.86358 3.30505,0.69307 4.91983,1.17929c0.4605,0.13866 0.88243,0.28348 1.27713,0.42984z" fill="#ff0000"/><path d="M237.15212,165.30224c3.3841,-0.73571 7.53492,-1.66531 10.21766,1.52763c0.8264,0.98357 0.81623,2.44301 1.07126,3.7021c0.1023,0.50507 -0.40919,1.22223 -0.00824,1.54595c0.69806,0.56359 1.92899,0.01141 2.63026,0.571c1.11411,0.88903 2.14814,2.10462 2.46444,3.49442c0.91425,4.01719 -1.48534,4.1973 -4.62243,5.89467c-0.75117,0.40643 -3.62805,-0.25501 -4.30185,0.26982c-0.57799,0.45022 -3.09695,3.85784 -3.54722,4.43579c-0.33328,0.42779 0.23391,3.87165 0.06201,3.91136c-1.67529,0.38702 -3.32733,-0.87438 -5.01027,-1.22667c-2.98473,2.60445 -5.87636,5.20629 -9.64142,0.74693c-0.89049,-1.0547 -0.32017,-2.74399 -0.3916,-4.12249c-0.026,-0.50178 0.49092,-1.18831 0.10005,-1.50403c-0.58831,-0.4752 -1.72556,0.30109 -2.2563,-0.23765c-1.45407,-1.47598 -3.40387,-3.25486 -3.21722,-5.31835c0.11665,-1.28966 5.09997,-3.89955 6.60394,-4.51567c0.78247,-0.32055 1.59849,-0.5602 2.41978,-0.76145c0.3756,-0.09204 1.23858,0.26304 1.15449,-0.11442c-0.09503,-0.42661 -0.93742,-0.06683 -1.26045,-0.36125c-0.1283,-0.11693 -3.47337,-4.62521 -3.56351,-4.89866c-0.52811,-1.60209 -1.78188,-3.66996 -0.75037,-5.00471c2.76965,-3.58389 8.2186,0.55516 10.96308,1.45752c0,0 0.44411,0.14804 0.88391,0.50817z" fill="#ffa000"/><path d="M236.96199,181.74212c-0.36239,2.67804 -4.60421,3.68329 -6.35211,1.91027c-2.02528,-2.05438 -0.71023,-4.59715 1.26189,-6.02818c0.05437,-2.15578 1.18612,-4.76086 3.22114,-5.39201c-0.19105,-0.29937 -0.30614,-0.60344 -0.21176,-0.92521c0.64828,-2.21031 5.71034,-4.81423 7.87982,-2.88049c2.40511,2.14376 0.03784,4.24663 -0.37632,6.07482c-0.19824,0.87507 1.38025,1.36163 1.47091,2.25428c0.34499,3.39696 -3.24703,4.54565 -5.97915,4.80924c-0.29039,0.02802 -0.60218,0.10583 -0.91441,0.17729z" fill="#ffdf00"/></g></g></svg>